<svg xmlns="http://www.w3.org/2000/svg" width="600" height="600" viewBox="0 0 600 600">
  <defs>
    <linearGradient id="bg" x1="0%" y1="0%" x2="100%" y2="100%">
      <stop offset="0%" style="stop-color:#7c2d12"/>
      <stop offset="100%" style="stop-color:#ea580c"/>
    </linearGradient>
  </defs>
  <rect width="600" height="600" fill="url(#bg)"/>
  <circle cx="300" cy="250" r="120" fill="rgba(255,255,255,0.08)"/>
  <!-- Crankbait lure icon -->
  <g transform="translate(300,250)">
    <ellipse cx="0" cy="0" rx="70" ry="35" fill="rgba(255,255,255,0.15)" stroke="#fbbf24" stroke-width="3"/>
    <path d="M-70,0 Q-90,-15 -80,-30" stroke="#fbbf24" stroke-width="2" fill="none"/>
    <path d="M70,0 L90,10 L90,-10 Z" fill="#fbbf24" opacity="0.8"/>
    <circle cx="-40" cy="-8" r="6" fill="#fff"/>
    <circle cx="-40" cy="-8" r="3" fill="#1e293b"/>
    <line x1="-20" y1="30" x2="-20" y2="50" stroke="rgba(255,255,255,0.4)" stroke-width="2"/>
    <line x1="20" y1="30" x2="20" y2="50" stroke="rgba(255,255,255,0.4)" stroke-width="2"/>
    <path d="M-25,48 L-20,55 L-15,48" stroke="rgba(255,255,255,0.5)" stroke-width="2" fill="none"/>
    <path d="M15,48 L20,55 L25,48" stroke="rgba(255,255,255,0.5)" stroke-width="2" fill="none"/>
    <line x1="-60" y1="5" x2="50" y2="5" stroke="rgba(255,255,255,0.15)" stroke-width="1"/>
  </g>
  <text x="300" y="430" text-anchor="middle" font-family="system-ui,sans-serif" font-size="22" font-weight="700" fill="#ffffff">Crankbait Hunter</text>
  <text x="300" y="460" text-anchor="middle" font-family="system-ui,sans-serif" font-size="22" font-weight="700" fill="#fbbf24">7cm</text>
  <text x="300" y="510" text-anchor="middle" font-family="system-ui,sans-serif" font-size="13" fill="rgba(255,255,255,0.5)" letter-spacing="3">3DFISH</text>
</svg>