<svg xmlns="http://www.w3.org/2000/svg" width="600" height="600" viewBox="0 0 600 600">
  <defs>
    <linearGradient id="bg" x1="0%" y1="0%" x2="100%" y2="100%">
      <stop offset="0%" style="stop-color:#78350f"/>
      <stop offset="100%" style="stop-color:#d97706"/>
    </linearGradient>
  </defs>
  <rect width="600" height="600" fill="url(#bg)"/>
  <circle cx="300" cy="250" r="120" fill="rgba(255,255,255,0.08)"/>
  <!-- Jig head icons -->
  <g transform="translate(230,230)">
    <circle cx="0" cy="0" r="18" fill="rgba(255,255,255,0.2)" stroke="#fbbf24" stroke-width="2"/>
    <path d="M12,12 C20,25 15,45 5,50" stroke="#fff" stroke-width="2" fill="none" stroke-linecap="round"/>
    <path d="M5,50 L0,45 M5,50 L10,47" stroke="#fff" stroke-width="2" fill="none"/>
  </g>
  <g transform="translate(300,210)">
    <circle cx="0" cy="0" r="22" fill="rgba(255,255,255,0.2)" stroke="#ef4444" stroke-width="2"/>
    <path d="M15,15 C25,30 20,55 8,62" stroke="#fff" stroke-width="2" fill="none" stroke-linecap="round"/>
    <path d="M8,62 L3,57 M8,62 L13,59" stroke="#fff" stroke-width="2" fill="none"/>
  </g>
  <g transform="translate(370,240)">
    <circle cx="0" cy="0" r="16" fill="rgba(255,255,255,0.2)" stroke="#22c55e" stroke-width="2"/>
    <path d="M10,10 C18,22 14,40 5,45" stroke="#fff" stroke-width="2" fill="none" stroke-linecap="round"/>
    <path d="M5,45 L0,40 M5,45 L10,42" stroke="#fff" stroke-width="2" fill="none"/>
  </g>
  <text x="300" y="430" text-anchor="middle" font-family="system-ui,sans-serif" font-size="22" font-weight="700" fill="#ffffff">Jig Head</text>
  <text x="300" y="460" text-anchor="middle" font-family="system-ui,sans-serif" font-size="22" font-weight="700" fill="#fbbf24">Zestaw 10 szt.</text>
  <text x="300" y="510" text-anchor="middle" font-family="system-ui,sans-serif" font-size="13" fill="rgba(255,255,255,0.5)" letter-spacing="3">3DFISH</text>
</svg>