<svg xmlns="http://www.w3.org/2000/svg" width="600" height="600" viewBox="0 0 600 600">
  <defs>
    <linearGradient id="bg" x1="0%" y1="0%" x2="100%" y2="100%">
      <stop offset="0%" style="stop-color:#134e4a"/>
      <stop offset="100%" style="stop-color:#14b8a6"/>
    </linearGradient>
  </defs>
  <rect width="600" height="600" fill="url(#bg)"/>
  <circle cx="300" cy="250" r="120" fill="rgba(255,255,255,0.08)"/>
  <!-- Line clips icon -->
  <g transform="translate(240,220)">
    <rect x="0" y="0" width="24" height="40" rx="4" fill="rgba(239,68,68,0.3)" stroke="#ef4444" stroke-width="2"/>
    <path d="M6,20 L18,20" stroke="#fff" stroke-width="1.5"/>
  </g>
  <g transform="translate(275,210)">
    <rect x="0" y="0" width="24" height="40" rx="4" fill="rgba(251,191,36,0.3)" stroke="#fbbf24" stroke-width="2"/>
    <path d="M6,20 L18,20" stroke="#fff" stroke-width="1.5"/>
  </g>
  <g transform="translate(310,220)">
    <rect x="0" y="0" width="24" height="40" rx="4" fill="rgba(34,197,94,0.3)" stroke="#22c55e" stroke-width="2"/>
    <path d="M6,20 L18,20" stroke="#fff" stroke-width="1.5"/>
  </g>
  <g transform="translate(345,210)">
    <rect x="0" y="0" width="24" height="40" rx="4" fill="rgba(59,130,246,0.3)" stroke="#3b82f6" stroke-width="2"/>
    <path d="M6,20 L18,20" stroke="#fff" stroke-width="1.5"/>
  </g>
  <path d="M230,280 C250,290 370,290 390,280" stroke="rgba(255,255,255,0.3)" stroke-width="1.5" fill="none" stroke-dasharray="4,4"/>
  <text x="300" y="430" text-anchor="middle" font-family="system-ui,sans-serif" font-size="22" font-weight="700" fill="#ffffff">Klip na Linke</text>
  <text x="300" y="460" text-anchor="middle" font-family="system-ui,sans-serif" font-size="22" font-weight="700" fill="#5eead4">Zestaw 20 szt.</text>
  <text x="300" y="510" text-anchor="middle" font-family="system-ui,sans-serif" font-size="13" fill="rgba(255,255,255,0.5)" letter-spacing="3">3DFISH</text>
</svg>