<svg xmlns="http://www.w3.org/2000/svg" width="600" height="600" viewBox="0 0 600 600">
  <defs>
    <linearGradient id="bg" x1="0%" y1="0%" x2="100%" y2="100%">
      <stop offset="0%" style="stop-color:#14532d"/>
      <stop offset="100%" style="stop-color:#16a34a"/>
    </linearGradient>
  </defs>
  <rect width="600" height="600" fill="url(#bg)"/>
  <circle cx="300" cy="260" r="120" fill="rgba(255,255,255,0.08)"/>
  <!-- Bobber/float icons -->
  <g transform="translate(300,250)" stroke-linecap="round">
    <g transform="translate(-60,0)">
      <line x1="0" y1="-60" x2="0" y2="60" stroke="#fff" stroke-width="2"/>
      <ellipse cx="0" cy="-10" rx="12" ry="20" fill="#ef4444"/>
      <ellipse cx="0" cy="25" rx="10" ry="18" fill="#ffffff"/>
    </g>
    <g transform="translate(0,-10)">
      <line x1="0" y1="-70" x2="0" y2="60" stroke="#fff" stroke-width="2"/>
      <ellipse cx="0" cy="-15" rx="14" ry="24" fill="#eab308"/>
      <ellipse cx="0" cy="25" rx="12" ry="20" fill="#ffffff"/>
    </g>
    <g transform="translate(60,0)">
      <line x1="0" y1="-60" x2="0" y2="60" stroke="#fff" stroke-width="2"/>
      <ellipse cx="0" cy="-10" rx="12" ry="20" fill="#f97316"/>
      <ellipse cx="0" cy="25" rx="10" ry="18" fill="#ffffff"/>
    </g>
  </g>
  <text x="300" y="430" text-anchor="middle" font-family="system-ui,sans-serif" font-size="22" font-weight="700" fill="#ffffff">Splawik 3D</text>
  <text x="300" y="460" text-anchor="middle" font-family="system-ui,sans-serif" font-size="22" font-weight="700" fill="#fbbf24">Zestaw 5 szt.</text>
  <text x="300" y="510" text-anchor="middle" font-family="system-ui,sans-serif" font-size="13" fill="rgba(255,255,255,0.5)" letter-spacing="3">3DFISH</text>
</svg>